#!OML:ASF F:\VICON\USERDATA\INSTALL\rory3\rory3.ASF
:FULLY-SPECIFIED
:DEGREES
198
root 0.755359 26.8401 -15.6528 4.65973 -1.92691 1.52793
lowerback 13.0396 1.67648 0.777465
upperback -0.472342 2.50372 1.95006
thorax -7.88915 1.22569 1.14251
lowerneck -16.3537 -4.45079 -10.3638
upperneck 15.7543 -5.001 7.64184
head 8.02651 -2.26984 3.66131
rclavicle -3.35946e-014 -1.35174e-014
rhumerus -43.5431 -35.5968 -60.5666
rradius 21.4111
rwrist 0.720809
rhand -25.4294 11.1934
rfingers 7.12502
rthumb 1.09681 -18.7835
lclavicle -3.35946e-014 -1.35174e-014
lhumerus -33.9908 21.0484 78.5768
lradius 22.544
lwrist -1.38097
lhand -27.2329 17.6948
lfingers 7.12502
lthumb -0.645058 47.6735
rfemur -17.3357 -9.59573 19.3435
rtibia 26.5712
rfoot 19.713 -8.0707
rtoes 11.3163
lfemur -18.7828 0.753255 -17.9166
ltibia 34.5558
lfoot 17.4175 -4.52083
ltoes 1.61355
199
root 0.744794 26.7922 -15.6314 4.52136 -1.73548 1.45661
lowerback 13.0798 1.63354 0.900035
upperback -0.526999 2.46493 1.91227
thorax -7.96312 1.20068 1.03923
lowerneck -16.0724 -4.46101 -10.0833
upperneck 15.5709 -5.09492 7.59417
head 7.91611 -2.30692 3.58805
rclavicle -2.54444e-014 -1.43125e-014
rhumerus -43.6026 -33.7785 -61.942
rradius 22.207
rwrist 0.253241
rhand -25.2626 11.4921
rfingers 7.12502
rthumb 1.25799 -18.484
lclavicle -2.54444e-014 -1.43125e-014
lhumerus -34.2751 19.8601 79.1029
lradius 22.8007
lwrist -1.24494
lhand -27.4848 19.2396
lfingers 7.12502
lthumb -0.888304 49.2175
rfemur -16.9275 -8.86126 19.2972
rtibia 25.9753
rfoot 19.7232 -7.71138
rtoes 9.6662
lfemur -18.6526 0.592106 -17.7731
ltibia 34.0073
lfoot 17.2246 -4.74283
ltoes 1.39816
200
root 0.741984 26.7384 -15.5962 4.45827 -1.62959 1.32349
lowerback 13.0108 1.60271 0.979257
upperback -0.649159 2.4485 2.03683
thorax -8.05804 1.19223 1.13089
lowerneck -15.8305 -4.37464 -10.087
upperneck 15.5004 -5.00219 7.62564
head 7.84233 -2.26496 3.6126
rclavicle 2.42517e-014 3.81667e-014
rhumerus -43.6883 -31.3713 -63.3025
rradius 23.1729
rwrist -0.440936
rhand -25.2981 11.8083
rfingers 7.12502
rthumb 1.22368 -18.1679
lclavicle 2.42517e-014 3.81667e-014
lhumerus -34.9867 19.0997 79.592
lradius 23.3939
lwrist -1.19375
lhand -27.5834 19.2881
lfingers 7.12502
lthumb -0.983543 49.2656
rfemur -16.5132 -8.1739 19.2915
rtibia 25.4788
rfoot 19.3889 -7.28128
rtoes 9.11483
lfemur -18.5327 0.45905 -17.6147
ltibia 33.4836
lfoot 16.8677 -4.96119
ltoes 0.446343
201
root 0.742366 26.6784 -15.558 4.40646 -1.52209 1.31188
lowerback 12.6688 1.58052 1.01214
upperback -0.61935 2.4211 2.10772
thorax -7.83282 1.18078 1.20182
lowerneck -15.634 -4.36182 -10.0181
upperneck 15.3078 -5.00505 7.59299
head 7.74183 -2.26853 3.58985
rclavicle -1.39149e-015 2.38542e-015
rhumerus -43.6014 -28.5671 -65.0655
rradius 24.4191
rwrist -1.51308
rhand -25.5832 11.4985
rfingers 7.12502
rthumb 0.948266 -18.4791
lclavicle -1.39149e-015 2.38542e-015
lhumerus -35.5796 18.3008 80.1962
lradius 24.3119
lwrist -0.928717
lhand -27.6197 19.8739
lfingers 7.12502
lthumb -1.01861 49.8512
rfemur -16.0903 -7.55269 19.1484
rtibia 25.0915
rfoot 18.8642 -7.02284
rtoes 8.84639
lfemur -18.3844 0.263451 -17.6055
ltibia 32.9688
lfoot 16.5223 -4.79669
ltoes 0.115904
202
root 0.740252 26.598 -15.5197 4.21594 -1.49212 1.34004
lowerback 12.771 1.56289 1.25494
upperback -0.789676 2.42623 1.91006
thorax -8.05506 1.16714 0.849663
lowerneck -15.2232 -4.37983 -9.69742
upperneck 15.2381 -5.16423 7.70989
head 7.65603 -2.32306 3.56102
rclavicle 2.24627e-014 -1.59028e-015
rhumerus -43.9957 -26.2179 -66.7717
rradius 25.5677
rwrist -2.02343
rhand -25.8501 11.1039
rfingers 7.12502
rthumb 0.690499 -18.8748
lclavicle 2.24627e-014 -1.59028e-015
lhumerus -36.5333 17.0825 80.4399
lradius 25.5934
lwrist -0.319479
lhand -27.2442 20.7025
lfingers 7.12502
lthumb -0.655905 50.6812
rfemur -15.6191 -6.86146 18.9663
rtibia 24.8383
rfoot 18.2603 -7.0959
rtoes 8.51036
lfemur -18.0821 0.216747 -17.647
ltibia 32.4791
lfoot 16.115 -4.57708
ltoes 0.464983
203
root 0.738579 26.4992 -15.4792 4.02819 -1.51183 1.32924
lowerback 12.1857 1.62335 1.25925
upperback -0.582602 2.4914 1.97423
thorax -7.50277 1.2044 0.920473
lowerneck -14.9536 -4.48355 -9.78161
upperneck 14.8911 -5.30621 7.7704
head 7.51256 -2.39501 3.57799
rclavicle -2.127e-014 4.77083e-015
rhumerus -43.6615 -24.0963 -68.25
rradius 26.4874
rwrist -2.26927
rhand -26.2526 10.7009
rfingers 7.12502
rthumb 0.301753 -19.2786
lclavicle -2.127e-014 4.77083e-015
lhumerus -36.9005 16.5582 81.028
lradius 26.8074
lwrist 0.098293
lhand -26.948 20.8588
lfingers 7.12502
lthumb -0.369835 50.8383
rfemur -15.1893 -6.17021 18.8291
rtibia 24.7232
rfoot 17.5532 -7.3595
rtoes 9.27552
lfemur -17.7881 0.278367 -17.6598
ltibia 32.0449
lfoot 15.7863 -4.39725
ltoes 0.671807
204
root 0.735553 26.3904 -15.447 3.89606 -1.41969 1.25667
lowerback 12.2191 1.50293 1.24323
upperback -0.605811 2.34505 2.16424
thorax -7.55444 1.13774 1.15686
lowerneck -15.2766 -4.50297 -10.1072
upperneck 15.0646 -5.24182 7.80447
head 7.63009 -2.37364 3.64855
rclavicle -1.19271e-015 -4.77083e-015
rhumerus -43.5047 -21.4758 -69.5771
rradius 27.483
rwrist -2.41994
rhand -26.2642 10.4764
rfingers 7.12502
rthumb 0.29062 -19.5031
lclavicle -1.19271e-015 -4.77083e-015
lhumerus -37.6473 16.4483 81.4636
lradius 28.1524
lwrist 0.704789
lhand -26.955 20.9787
lfingers 7.12502
lthumb -0.376585 50.9581
rfemur -14.8195 -5.50964 18.8098
rtibia 24.6887
rfoot 16.987 -7.69422
rtoes 10.1892
lfemur -17.6215 0.350393 -17.5881
ltibia 31.6664
lfoot 15.5638 -4.17071
ltoes 0.77354
205
root 0.72792 26.2738 -15.4171 3.81579 -1.27695 1.19838
lowerback 11.9542 1.42049 1.07429
upperback -0.494246 2.21791 2.3911
thorax -7.2989 1.08869 1.52254
lowerneck -15.454 -4.51245 -10.2843
upperneck 14.9681 -5.19664 7.83602
head 7.63099 -2.35533 3.69084
rclavicle 1.19271e-015 -6.36111e-015
rhumerus -43.4556 -19.1353 -70.7032
rradius 28.754
rwrist -2.58259
rhand -26.0088 10.1464
rfingers 7.12502
rthumb 0.537205 -19.8327
lclavicle 1.19271e-015 -6.36111e-015
lhumerus -38.2112 15.9952 82.0916
lradius 29.566
lwrist 1.58444
lhand -26.94 20.8695
lfingers 7.12502
lthumb -0.362177 50.849
rfemur -14.5595 -4.93237 18.8274
rtibia 24.702
rfoot 16.484 -7.81273
rtoes 9.81564
lfemur -17.5384 0.472028 -17.5239
ltibia 31.3621
lfoot 15.325 -3.9398
ltoes 0.0751501
206
root 0.721541 26.1464 -15.3763 3.65189 -1.24259 1.24661
lowerback 12.0985 1.27418 1.16976
upperback -0.774557 2.03974 2.26127
thorax -7.66881 0.994388 1.35934
lowerneck -15.1114 -4.38248 -10.2343
upperneck 15.0808 -5.11386 8.06658
head 7.60448 -2.30013 3.7753
rclavicle 1.6201e-014 1.66979e-014
rhumerus -44.2193 -17.1153 -71.8186
rradius 29.9913
rwrist -2.54836
rhand -25.1869 10.0646
rfingers 7.12502
rthumb 1.33102 -19.911
lclavicle 1.6201e-014 1.66979e-014
lhumerus -39.5136 14.9746 82.1335
lradius 31.17
lwrist 3.11468
lhand -26.8759 20.781
lfingers 7.12502
lthumb -0.300208 50.7605
rfemur -14.2452 -4.46116 18.7269
rtibia 24.787
rfoot 16.1339 -7.67515
rtoes 9.0464
lfemur -17.2927 0.670083 -17.6124
ltibia 31.1083
lfoot 15.2287 -3.58197
ltoes 0.031844
207
root 0.718184 26.0048 -15.3387 3.48715 -1.08678 1.15844
lowerback 12.2436 1.21912 1.75151
upperback -0.978459 2.03132 1.86836
thorax -7.93482 0.954798 0.611857
lowerneck -15.0191 -4.41657 -9.69015
upperneck 15.2107 -5.33864 8.25605
head 7.64255 -2.36058 3.72503
rclavicle -1.65985e-014 -2.38542e-015
rhumerus -45.0598 -16.0603 -73.0047
rradius 31.0639
rwrist -2.13617
rhand -24.5445 11.126
rfingers 7.12502
rthumb 1.9515 -18.8449
lclavicle -1.65985e-014 -2.38542e-015
lhumerus -40.3058 13.3228 82.1127
lradius 32.6855
lwrist 4.62619
lhand -26.9551 21.5811
lfingers 7.12502
lthumb -0.37671 51.5605
rfemur -13.9113 -4.19369 18.7828
rtibia 24.926
rfoot 15.8816 -7.5932
rtoes 9.06935
lfemur -17.0695 0.930148 -17.5427
ltibia 30.9115
lfoot 15.147 -3.36682
ltoes 0.943783
208
root 0.715766 25.8488 -15.3081 3.33206 -0.802367 1.11848
lowerback 12.2876 1.10154 2.05755
upperback -1.10954 1.91512 1.73429
thorax -8.08635 0.880121 0.317269
lowerneck -14.8925 -4.40828 -9.59517
upperneck 15.2332 -5.41914 8.55657
head 7.64125 -2.36903 3.80278
rclavicle -3.18055e-015 7.95139e-016
rhumerus -45.6678 -14.4813 -74.1527
rradius 32.2388
rwrist -2.06932
rhand -24.7641 11.5838
rfingers 7.12502
rthumb 1.73944 -18.3889
lclavicle -3.18055e-015 7.95139e-016
lhumerus -41.0227 12.2104 82.3529
lradius 34.14
lwrist 5.84515
lhand -27.0431 22.135
lfingers 7.12502
lthumb -0.461674 52.1143
rfemur -13.6117 -3.99947 18.7972
rtibia 25.1337
rfoot 15.4193 -7.75372
rtoes 8.19314
lfemur -16.9623 1.09788 -17.5284
ltibia 30.7857
lfoot 14.9424 -3.32035
ltoes 1.17638
209
root 0.711069 25.6781 -15.2694 3.16093 -0.714427 1.15682
lowerback 12.0549 1.05242 1.98178
upperback -1.10137 1.83845 1.83355
thorax -7.95083 0.850255 0.484248
lowerneck -14.867 -4.37674 -9.99817
upperneck 15.2424 -5.39732 9.14276
head 7.66594 -2.32986 4.07107
rclavicle -7.45443e-015 3.18055e-015
rhumerus -45.8202 -12.682 -75.0623
rradius 33.2875
rwrist -2.68336
rhand -25.1652 11.5665
rfingers 7.12502
rthumb 1.352 -18.409
lclavicle -7.45443e-015 3.18055e-015
lhumerus -41.6824 11.5114 82.8364
lradius 35.4783
lwrist 6.57145
lhand -27.1441 21.8532
lfingers 7.12502
lthumb -0.559279 51.8322
rfemur -13.3422 -3.67993 18.7046
rtibia 25.4163
rfoot 15.0138 -7.77631
rtoes 7.17059
lfemur -16.8009 1.39128 -17.608
ltibia 30.7339
lfoot 14.6668 -3.23858
ltoes 0.59845
